PathFileType	4	(X/Y/Z)	OpenSim_Sub03_EMGBaseline_Magnet.trc
DataRate	CameraRate	NumFrames	NumMarkers	Units	OrigDataRate	OrigDataStartFrame	OrigNumFrames
100	100	16	8	m	100	5530	7372
Frame#	Time	torso_imu_offset_imu	pelvis_imu_offset_imu	tibia_r_imu_offset_imu	femur_r_imu_offset_imu	tibia_l_imu_offset_imu	femur_l_imu_offset_imu	toes_r_imu_offset_imu	toes_l_imu_offset_imu
				X1	Y1	Z1	X2	Y2	Z2	X3	Y3	Z3	X4	Y4	Z4	X5	Y5	Z5	X6	Y6	Z6	X7	Y7	Z7	X8		Y8	Z8	

5530	55.29000000	-0.86589741	-0.21856569	0.11013716	-0.72314859	0.14363724	-0.52813883	-0.21430371	-0.74081216	-0.02384849	-0.80454072	-0.13365630	0.05200518	-0.64201178	0.40633582	0.17680630	-0.67987108	0.32223865	0.31877402	-0.63087704	-0.47400746	0.15788115	-0.70896749	-0.07866728	-0.33420718
5531	55.30000000	-0.86691824	-0.22132487	0.10990800	-0.72062427	0.14625369	-0.53392292	-0.22445604	-0.73585954	-0.01458894	-0.80536670	-0.12037460	0.05086335	-0.63602214	0.40733392	0.17705221	-0.67984072	0.32423323	0.31424957	-0.65122334	-0.45630741	0.14333891	-0.70914875	-0.08045969	-0.31974511
5532	55.31000000	-0.86776608	-0.21811992	0.11102982	-0.72089442	0.14276695	-0.53513851	-0.24051097	-0.73182612	-0.00945909	-0.80679267	-0.11326954	0.05182507	-0.63596161	0.41453802	0.17573586	-0.67865441	0.33000726	0.31991740	-0.66709687	-0.44018014	0.11748246	-0.71368438	-0.08226951	-0.31201827
5533	55.32000000	-0.86554284	-0.21711416	0.11312474	-0.72357699	0.14348123	-0.53384763	-0.25776885	-0.72344979	-0.00384591	-0.80928972	-0.10002379	0.05751617	-0.63830019	0.41724158	0.17885228	-0.67445814	0.33908930	0.32379629	-0.68311880	-0.42153923	0.09277308	-0.71706755	-0.08734792	-0.30404251
5534	55.33000000	-0.86801601	-0.21755528	0.11396266	-0.71620974	0.14691350	-0.53767572	-0.27550963	-0.71809461	0.00408639	-0.81574874	-0.09263301	0.05876042	-0.63170935	0.42664320	0.17711618	-0.67787235	0.34001967	0.32438978	-0.69693084	-0.41338320	0.06008056	-0.71068237	-0.08910168	-0.30608198
5535	55.34000000	-0.87012492	-0.21623410	0.11201452	-0.71866570	0.14528339	-0.53711783	-0.29847466	-0.70992367	0.00144360	-0.81459690	-0.08302385	0.06076189	-0.62645892	0.43487714	0.17107633	-0.67434232	0.34674600	0.31882625	-0.70688785	-0.39965949	0.03179876	-0.71868486	-0.08741376	-0.30217577
5536	55.35000000	-0.86776987	-0.21575218	0.11678921	-0.71824761	0.14440888	-0.53742582	-0.31625522	-0.70006878	0.00453380	-0.81248091	-0.07501682	0.06324862	-0.62138830	0.43684360	0.17740137	-0.67053320	0.35155421	0.31223641	-0.72067578	-0.38222765	0.00672551	-0.72689638	-0.09126122	-0.29340391
5537	55.36000000	-0.86979045	-0.21736646	0.11850066	-0.71505563	0.14308433	-0.54087634	-0.33851722	-0.69109036	0.00363986	-0.81562220	-0.06938532	0.06346930	-0.62131731	0.44501960	0.17391012	-0.66916154	0.35729537	0.31889595	-0.72352951	-0.37195887	-0.02923963	-0.72766056	-0.09778755	-0.28640544
5538	55.37000000	-0.86809418	-0.21814242	0.12041197	-0.71808811	0.14365029	-0.54138531	-0.36182444	-0.67484541	-0.00667073	-0.81750573	-0.05981127	0.06698636	-0.62358594	0.45080679	0.16537687	-0.66709867	0.36234251	0.32227839	-0.73318614	-0.35606381	-0.05598332	-0.73027442	-0.10359955	-0.27612651
5539	55.38000000	-0.86337944	-0.21863293	0.11923760	-0.71628328	0.14640197	-0.54297642	-0.38258803	-0.65941318	-0.01293191	-0.81494737	-0.05780696	0.07419389	-0.61791404	0.45852197	0.16789911	-0.66838070	0.36866755	0.31596970	-0.73545255	-0.33938306	-0.09005370	-0.73112604	-0.09980370	-0.27095226
5540	55.39000000	-0.86384303	-0.21734796	0.12399009	-0.71491396	0.14296501	-0.54429237	-0.40377366	-0.65263259	-0.01473698	-0.81438541	-0.05021452	0.07593562	-0.60834855	0.46249567	0.17133304	-0.66150860	0.37165007	0.31032127	-0.73226178	-0.32393628	-0.12015602	-0.73378606	-0.10288112	-0.26459432
5541	55.40000000	-0.86561367	-0.21582585	0.13366787	-0.71671185	0.14307547	-0.54980116	-0.42735401	-0.63744530	-0.01362564	-0.81749895	-0.04632589	0.07533431	-0.60801862	0.46620150	0.16818828	-0.65858482	0.37491147	0.31366653	-0.73666773	-0.31417350	-0.14568407	-0.73937880	-0.10098534	-0.25834866
5542	55.41000000	-0.86899979	-0.21172016	0.13027641	-0.71917324	0.14401803	-0.55298190	-0.45528186	-0.61674075	-0.01331569	-0.81924871	-0.04251697	0.07802526	-0.61154230	0.47419368	0.16422914	-0.66104158	0.38402177	0.31238713	-0.73581188	-0.29807604	-0.17153571	-0.74199446	-0.10156929	-0.25780736
5543	55.42000000	-0.86776106	-0.21060457	0.13188604	-0.71149671	0.14102792	-0.55058901	-0.47616528	-0.60242905	-0.00769538	-0.82075212	-0.03803536	0.08276589	-0.60399605	0.48100550	0.16305489	-0.66122968	0.39310639	0.31331794	-0.73793769	-0.27885759	-0.19586204	-0.74558068	-0.10501353	-0.24799724
5544	55.43000000	-0.86527931	-0.21203639	0.13646045	-0.70966359	0.14083001	-0.55236177	-0.50033085	-0.58427460	-0.00850543	-0.81686490	-0.03969303	0.08430036	-0.60398653	0.48264700	0.16528828	-0.65966240	0.39473190	0.31128396	-0.73790217	-0.25928640	-0.22322858	-0.74227912	-0.10437947	-0.24222052
5545	55.44000000	-0.86480742	-0.21173692	0.13409477	-0.70895942	0.14241473	-0.55737371	-0.51822094	-0.56198867	-0.00448399	-0.81857166	-0.04110025	0.09042423	-0.59906583	0.48818389	0.15818037	-0.65552500	0.39594821	0.30502685	-0.74070898	-0.23241061	-0.24761642	-0.74229830	-0.10443622	-0.23445119
